<mxfile host="app.diagrams.net" modified="2022-03-10T16:00:14.680Z" agent="5.0 (Windows)" etag="x3Bu66Q-M4xl0vS77hDw" version="16.6.5" type="github">
  <diagram id="6a731a19-8d31-9384-78a2-239565b7b9f0" name="Page-1">
    <mxGraphModel dx="1632" dy="450" grid="1" gridSize="10" guides="1" tooltips="1" connect="1" arrows="1" fold="1" page="1" pageScale="1" pageWidth="827" pageHeight="1169" background="none" math="0" shadow="0">
      <root>
        <mxCell id="0" />
        <mxCell id="1" parent="0" />
        <mxCell id="2086" value="" style="rounded=1;whiteSpace=wrap;html=1;strokeColor=none;fillColor=#BAC8D3;fontSize=24;fontColor=#23445D;align=center;opacity=60;" parent="1" vertex="1">
          <mxGeometry x="90" y="534" width="350" height="186" as="geometry" />
        </mxCell>
        <mxCell id="Bi1dZjBAvo9UtauBQUie-2261" style="edgeStyle=orthogonalEdgeStyle;rounded=0;orthogonalLoop=1;jettySize=auto;html=1;entryX=0;entryY=0.5;entryDx=0;entryDy=0;entryPerimeter=0;" edge="1" parent="1" source="Bi1dZjBAvo9UtauBQUie-2262" target="Bi1dZjBAvo9UtauBQUie-2263">
          <mxGeometry relative="1" as="geometry" />
        </mxCell>
        <mxCell id="Bi1dZjBAvo9UtauBQUie-2262" value="Internet" style="shape=mxgraph.cisco.storage.cloud;html=1;dashed=0;strokeColor=#23445D;fillColor=#ffffff;strokeWidth=2;fontFamily=Helvetica;fontSize=24;fontColor=#23445D;align=center;fontStyle=1" vertex="1" parent="1">
          <mxGeometry y="259.5" width="186" height="106" as="geometry" />
        </mxCell>
        <mxCell id="Bi1dZjBAvo9UtauBQUie-2263" value="" style="shape=mxgraph.cisco.routers.router;html=1;dashed=0;fillColor=#10739E;strokeColor=#ffffff;strokeWidth=2;verticalLabelPosition=bottom;verticalAlign=top;fontFamily=Helvetica;fontSize=36;fontColor=#FFB366" vertex="1" parent="1">
          <mxGeometry x="220" y="286" width="78" height="53" as="geometry" />
        </mxCell>
        <mxCell id="Bi1dZjBAvo9UtauBQUie-2264" value="" style="elbow=horizontal;endArrow=none;html=1;strokeColor=#23445D;endFill=0;strokeWidth=4;rounded=1;exitX=0.5;exitY=0;exitDx=0;exitDy=0;exitPerimeter=0;" edge="1" parent="1" source="Bi1dZjBAvo9UtauBQUie-2266" target="Bi1dZjBAvo9UtauBQUie-2263">
          <mxGeometry width="100" height="100" relative="1" as="geometry">
            <mxPoint x="1296" y="374.8568075117371" as="sourcePoint" />
            <mxPoint x="1300.2777777777778" y="345.08333333333337" as="targetPoint" />
          </mxGeometry>
        </mxCell>
        <mxCell id="Bi1dZjBAvo9UtauBQUie-2265" style="edgeStyle=orthogonalEdgeStyle;rounded=0;orthogonalLoop=1;jettySize=auto;html=1;entryX=0.54;entryY=0;entryDx=0;entryDy=0;entryPerimeter=0;" edge="1" parent="1" source="Bi1dZjBAvo9UtauBQUie-2266" target="Bi1dZjBAvo9UtauBQUie-2267">
          <mxGeometry relative="1" as="geometry" />
        </mxCell>
        <mxCell id="Bi1dZjBAvo9UtauBQUie-2266" value="" style="shape=mxgraph.cisco.switches.workgroup_switch;sketch=0;html=1;pointerEvents=1;dashed=0;fillColor=#036897;strokeColor=#ffffff;strokeWidth=2;verticalLabelPosition=bottom;verticalAlign=top;align=center;outlineConnect=0;" vertex="1" parent="1">
          <mxGeometry x="209.5" y="360" width="101" height="50" as="geometry" />
        </mxCell>
        <mxCell id="Bi1dZjBAvo9UtauBQUie-2277" style="edgeStyle=orthogonalEdgeStyle;rounded=0;orthogonalLoop=1;jettySize=auto;html=1;entryX=0.5;entryY=0;entryDx=0;entryDy=0;" edge="1" parent="1" source="Bi1dZjBAvo9UtauBQUie-2267" target="Bi1dZjBAvo9UtauBQUie-2275">
          <mxGeometry relative="1" as="geometry">
            <Array as="points">
              <mxPoint x="535" y="450" />
            </Array>
          </mxGeometry>
        </mxCell>
        <mxCell id="Bi1dZjBAvo9UtauBQUie-2278" value="Delegates" style="edgeLabel;html=1;align=center;verticalAlign=middle;resizable=0;points=[];fontSize=12;" vertex="1" connectable="0" parent="Bi1dZjBAvo9UtauBQUie-2277">
          <mxGeometry x="0.2612" y="2" relative="1" as="geometry">
            <mxPoint x="-31" y="-12" as="offset" />
          </mxGeometry>
        </mxCell>
        <mxCell id="Bi1dZjBAvo9UtauBQUie-2279" style="edgeStyle=orthogonalEdgeStyle;rounded=0;orthogonalLoop=1;jettySize=auto;html=1;entryX=0.48;entryY=0.009;entryDx=0;entryDy=0;entryPerimeter=0;" edge="1" parent="1" source="Bi1dZjBAvo9UtauBQUie-2267" target="2086">
          <mxGeometry relative="1" as="geometry" />
        </mxCell>
        <mxCell id="Bi1dZjBAvo9UtauBQUie-2267" value="" style="shape=mxgraph.cisco.servers.directory_server;sketch=0;html=1;pointerEvents=1;dashed=0;fillColor=#036897;strokeColor=#ffffff;strokeWidth=2;verticalLabelPosition=bottom;verticalAlign=top;align=center;outlineConnect=0;" vertex="1" parent="1">
          <mxGeometry x="222" y="420" width="72" height="59" as="geometry" />
        </mxCell>
        <mxCell id="Bi1dZjBAvo9UtauBQUie-2272" value="" style="group" vertex="1" connectable="0" parent="1">
          <mxGeometry x="170" y="600" width="168" height="90" as="geometry" />
        </mxCell>
        <mxCell id="Bi1dZjBAvo9UtauBQUie-2268" value="" style="shape=mxgraph.cisco.computers_and_peripherals.pc;sketch=0;html=1;pointerEvents=1;dashed=0;fillColor=#036897;strokeColor=#ffffff;strokeWidth=2;verticalLabelPosition=bottom;verticalAlign=top;align=center;outlineConnect=0;" vertex="1" parent="Bi1dZjBAvo9UtauBQUie-2272">
          <mxGeometry x="90" width="78" height="70" as="geometry" />
        </mxCell>
        <mxCell id="Bi1dZjBAvo9UtauBQUie-2270" value="" style="shape=mxgraph.cisco.computers_and_peripherals.pc;sketch=0;html=1;pointerEvents=1;dashed=0;fillColor=#036897;strokeColor=#ffffff;strokeWidth=2;verticalLabelPosition=bottom;verticalAlign=top;align=center;outlineConnect=0;" vertex="1" parent="Bi1dZjBAvo9UtauBQUie-2272">
          <mxGeometry width="78" height="70" as="geometry" />
        </mxCell>
        <mxCell id="Bi1dZjBAvo9UtauBQUie-2271" value="" style="shape=mxgraph.cisco.computers_and_peripherals.pc;sketch=0;html=1;pointerEvents=1;dashed=0;fillColor=#036897;strokeColor=#ffffff;strokeWidth=2;verticalLabelPosition=bottom;verticalAlign=top;align=center;outlineConnect=0;" vertex="1" parent="Bi1dZjBAvo9UtauBQUie-2272">
          <mxGeometry x="40" y="20" width="78" height="70" as="geometry" />
        </mxCell>
        <mxCell id="Bi1dZjBAvo9UtauBQUie-2273" value="lmdsio.com" style="text;html=1;strokeColor=none;fillColor=none;align=center;verticalAlign=middle;whiteSpace=wrap;rounded=0;" vertex="1" parent="1">
          <mxGeometry x="214.5" y="550" width="101" height="30" as="geometry" />
        </mxCell>
        <mxCell id="Bi1dZjBAvo9UtauBQUie-2275" value="" style="rounded=1;whiteSpace=wrap;html=1;strokeColor=none;fillColor=#BAC8D3;fontSize=24;fontColor=#23445D;align=center;opacity=60;" vertex="1" parent="1">
          <mxGeometry x="460" y="534" width="150" height="186" as="geometry" />
        </mxCell>
        <mxCell id="Bi1dZjBAvo9UtauBQUie-2274" value="Plesk" style="shape=mxgraph.cisco.servers.fileserver;sketch=0;html=1;pointerEvents=1;dashed=0;fillColor=#036897;strokeColor=#ffffff;strokeWidth=2;verticalLabelPosition=bottom;verticalAlign=top;align=center;outlineConnect=0;" vertex="1" parent="1">
          <mxGeometry x="513.5" y="596" width="43" height="62" as="geometry" />
        </mxCell>
        <mxCell id="Bi1dZjBAvo9UtauBQUie-2276" value="etu.lmdsio.com" style="text;html=1;strokeColor=none;fillColor=none;align=center;verticalAlign=middle;whiteSpace=wrap;rounded=0;" vertex="1" parent="1">
          <mxGeometry x="415" y="550" width="240" height="30" as="geometry" />
        </mxCell>
        <mxCell id="Bi1dZjBAvo9UtauBQUie-2280" value="Our domain controller" style="text;html=1;strokeColor=none;fillColor=none;align=center;verticalAlign=middle;whiteSpace=wrap;rounded=0;" vertex="1" parent="1">
          <mxGeometry x="100" y="434.5" width="101" height="30" as="geometry" />
        </mxCell>
        <mxCell id="Bi1dZjBAvo9UtauBQUie-2281" value="Manages" style="text;html=1;strokeColor=none;fillColor=none;align=center;verticalAlign=middle;whiteSpace=wrap;rounded=0;" vertex="1" parent="1">
          <mxGeometry x="160" y="490" width="101" height="30" as="geometry" />
        </mxCell>
        <mxCell id="Bi1dZjBAvo9UtauBQUie-2282" style="edgeStyle=orthogonalEdgeStyle;rounded=0;orthogonalLoop=1;jettySize=auto;html=1;entryX=0.5;entryY=1;entryDx=0;entryDy=0;entryPerimeter=0;fontSize=12;" edge="1" parent="1" source="Bi1dZjBAvo9UtauBQUie-2271" target="Bi1dZjBAvo9UtauBQUie-2274">
          <mxGeometry relative="1" as="geometry">
            <Array as="points">
              <mxPoint x="249" y="780" />
              <mxPoint x="535" y="780" />
            </Array>
          </mxGeometry>
        </mxCell>
        <mxCell id="Bi1dZjBAvo9UtauBQUie-2283" value="Each students gets and subdomain in etu.lmdsio.com. I.e. schaffter.etu.lmdsio.com" style="text;html=1;strokeColor=none;fillColor=none;align=center;verticalAlign=middle;whiteSpace=wrap;rounded=0;fontSize=12;" vertex="1" parent="1">
          <mxGeometry x="250" y="790" width="300" height="30" as="geometry" />
        </mxCell>
        <mxCell id="Bi1dZjBAvo9UtauBQUie-2284" value="Students access, host and manage their web hosts internally in our local zone" style="text;html=1;strokeColor=none;fillColor=none;align=center;verticalAlign=middle;whiteSpace=wrap;rounded=0;fontSize=12;" vertex="1" parent="1">
          <mxGeometry x="280" y="742" width="240" height="30" as="geometry" />
        </mxCell>
      </root>
    </mxGraphModel>
  </diagram>
</mxfile>
